<svg width="953" height="926" viewBox="0 0 953 926" fill="none" xmlns="http://www.w3.org/2000/svg">
<path d="M393.5 1.4999C395.542 2.54042 395.542 2.54042 397.547 3.83583C398.3 4.31698 399.053 4.79812 399.829 5.29384C400.628 5.81559 401.427 6.33734 402.25 6.8749C403.094 7.41727 403.938 7.95964 404.808 8.51845C407.377 10.1714 409.939 11.8346 412.5 13.4999C413.882 14.3936 415.265 15.2869 416.648 16.1796C419.36 17.9313 422.069 19.6874 424.777 21.4452C431.645 25.896 438.542 30.3026 445.445 34.6998C450.014 37.6132 454.576 40.53 459.07 43.5585C460.042 44.207 460.042 44.207 461.032 44.8685C462.67 45.9668 464.298 47.0784 465.926 48.1913C468.308 49.7129 468.308 49.7129 470.397 49.2282C472.707 48.4281 474.619 47.4093 476.719 46.1561C477.971 45.4133 477.971 45.4133 479.248 44.6554C480.156 44.1091 481.064 43.5628 482 42.9999C482.965 42.4246 483.93 41.8492 484.924 41.2565C492.056 36.9933 499.161 32.683 506.262 28.368C508.007 27.3083 509.752 26.2499 511.498 25.1918C517.241 21.7089 522.974 18.212 528.683 14.6741C531.429 12.9755 534.183 11.2888 536.938 9.60399C538.263 8.78968 539.584 7.97009 540.903 7.14507C542.738 5.99714 544.584 4.86788 546.434 3.74208C548.012 2.76538 548.012 2.76538 549.623 1.76894C552.898 0.324475 554.17 0.327776 557.5 1.4999C559.735 2.81108 561.819 4.14692 563.938 5.6249C564.577 6.06084 565.216 6.49679 565.874 6.94594C567.302 7.92094 568.727 8.89958 570.15 9.88124C572.662 11.6117 575.184 13.3284 577.707 15.0429C585.018 20.0123 592.315 25.0006 599.605 29.9999C600.829 30.8385 600.829 30.8385 602.077 31.694C603.567 32.7153 605.056 33.7375 606.544 34.7609C607.953 35.7276 609.372 36.6814 610.799 37.6224C613.5 39.4999 613.5 39.4999 616.549 41.9731C627.005 50.1625 635.607 50.8618 648.571 50.5206C650.546 50.5064 652.52 50.4967 654.495 50.4914C658.717 50.4709 662.938 50.42 667.159 50.345C673.843 50.2284 680.525 50.1927 687.209 50.1691C703.8 50.0985 720.39 49.9251 736.98 49.7266C749.897 49.5731 762.812 49.4491 775.73 49.4144C782.369 49.3933 789.002 49.3114 795.639 49.1828C799.772 49.116 803.904 49.1037 808.037 49.106C809.945 49.0961 811.853 49.064 813.761 49.0074C828.889 48.5768 828.889 48.5768 834.043 53.3565C836.923 56.5039 839.212 59.9068 841.5 63.4999C842.49 64.7705 843.494 66.0308 844.523 67.2694C845.299 68.2736 846.075 69.2778 846.875 70.3124C850.853 75.4284 854.901 80.4803 859 85.4999C863.508 91.0231 867.948 96.5917 872.336 102.211C875.838 106.684 879.408 111.099 883 115.5C887.508 121.023 891.948 126.592 896.336 132.211C900.373 137.368 904.505 142.444 908.647 147.517C912.762 152.568 916.809 157.668 920.811 162.808C922.811 165.374 924.717 167.7 927.114 169.913C930.953 174.564 930.179 180.241 930.115 185.982C930.121 187.259 930.127 188.537 930.133 189.852C930.148 193.405 930.132 196.957 930.111 200.51C930.094 204.363 930.106 208.216 930.114 212.069C930.125 218.831 930.116 225.594 930.096 232.356C930.066 242.543 930.064 252.729 930.068 262.915C930.075 279.985 930.058 297.054 930.028 314.124C929.987 337.204 929.977 360.284 929.973 383.364C929.947 438.868 929.877 494.371 929.813 549.875C929.709 673.831 929.606 797.787 929.5 925.5C632.5 925.5 335.5 925.5 29.5 925.5C29.2731 801.688 29.0463 677.876 28.8125 550.312C28.7124 511.171 28.6122 472.03 28.509 431.702C28.4594 384.027 28.4594 384.027 28.4501 361.731C28.4392 345.078 28.3917 328.426 28.3266 311.773C28.2611 294.795 28.2368 277.817 28.2521 260.839C28.26 250.742 28.2381 240.646 28.1711 230.55C28.1299 223.882 28.1286 217.215 28.1598 210.547C28.1765 206.749 28.1758 202.954 28.1263 199.156C27.806 173.09 27.806 173.09 34.8937 165.353C36.6961 163.621 38.5534 162.079 40.5 160.5C42.1935 158.576 42.1935 158.576 43.5234 156.73C48.2706 150.587 53.0896 144.513 58 138.5C62.0499 133.538 66.0581 128.548 70 123.5C74.482 117.76 79.0596 112.103 83.6641 106.461C87.1553 102.175 90.5982 97.8566 94 93.4999C98.4762 87.7672 103.047 82.1172 107.646 76.4828C111.762 71.4322 115.809 66.3322 119.811 61.1913C121.034 59.6225 122.267 58.0611 123.5 56.4999C124.22 55.4605 124.94 54.4212 125.683 53.3503C127.877 50.7468 128.396 50.5217 131.96 49.7739C133.312 49.7545 134.665 49.768 136.017 49.8077C137.14 49.8045 137.14 49.8045 138.285 49.8012C140.79 49.801 143.292 49.8435 145.796 49.8856C147.594 49.8938 149.391 49.8993 151.188 49.9021C155.06 49.9134 158.93 49.9429 162.801 49.986C168.934 50.0525 175.067 50.0691 181.201 50.0771C197.546 50.1061 213.89 50.1982 230.235 50.3262C240.965 50.4101 251.696 50.4649 262.427 50.4658C268.511 50.4686 274.592 50.5166 280.676 50.5996C284.483 50.6409 288.29 50.6398 292.098 50.6276C293.847 50.6303 295.597 50.6498 297.346 50.6886C309.823 50.952 317.624 48.2807 327.661 40.8418C330.814 38.5411 334.099 36.4397 337.367 34.3085C338.687 33.4273 340.006 32.5445 341.323 31.6583C344.099 29.7931 346.878 27.9328 349.661 26.0778C355.912 21.9104 362.158 17.7373 368.376 13.5206C370.767 11.9024 373.166 10.296 375.567 8.69231C377.216 7.58524 378.854 6.46251 380.492 5.3395C381.479 4.68215 382.467 4.02481 383.484 3.34755C384.764 2.48142 384.764 2.48142 386.069 1.5978C389.093 0.232023 390.389 0.449118 393.5 1.4999Z" fill="#FEC39B"/>
<mask id="path-2-inside-1_1_13" fill="white">
<path d="M393.5 1.4999C395.542 2.54042 395.542 2.54042 397.547 3.83583C398.3 4.31698 399.053 4.79812 399.829 5.29384C400.628 5.81559 401.427 6.33734 402.25 6.8749C403.094 7.41727 403.938 7.95964 404.808 8.51845C407.377 10.1714 409.939 11.8346 412.5 13.4999C413.882 14.3936 415.265 15.2869 416.648 16.1796C419.36 17.9313 422.069 19.6874 424.777 21.4452C431.645 25.896 438.542 30.3026 445.445 34.6998C450.014 37.6132 454.576 40.53 459.07 43.5585C460.042 44.207 460.042 44.207 461.032 44.8685C462.67 45.9668 464.298 47.0784 465.926 48.1913C468.308 49.7129 468.308 49.7129 470.397 49.2282C472.707 48.4281 474.619 47.4093 476.719 46.1561C477.971 45.4133 477.971 45.4133 479.248 44.6554C480.156 44.1091 481.064 43.5628 482 42.9999C482.965 42.4246 483.93 41.8492 484.924 41.2565C492.056 36.9933 499.161 32.683 506.262 28.368C508.007 27.3083 509.752 26.2499 511.498 25.1918C517.241 21.7089 522.974 18.212 528.683 14.6741C531.429 12.9755 534.183 11.2888 536.938 9.60399C538.263 8.78968 539.584 7.97009 540.903 7.14507C542.738 5.99714 544.584 4.86788 546.434 3.74208C548.012 2.76538 548.012 2.76538 549.623 1.76894C552.898 0.324475 554.17 0.327776 557.5 1.4999C559.735 2.81108 561.819 4.14692 563.938 5.6249C564.577 6.06084 565.216 6.49679 565.874 6.94594C567.302 7.92094 568.727 8.89958 570.15 9.88124C572.662 11.6117 575.184 13.3284 577.707 15.0429C585.018 20.0123 592.315 25.0006 599.605 29.9999C600.829 30.8385 600.829 30.8385 602.077 31.694C603.567 32.7153 605.056 33.7375 606.544 34.7609C607.953 35.7276 609.372 36.6814 610.799 37.6224C613.5 39.4999 613.5 39.4999 616.549 41.9731C627.005 50.1625 635.607 50.8618 648.571 50.5206C650.546 50.5064 652.52 50.4967 654.495 50.4914C658.717 50.4709 662.938 50.42 667.159 50.345C673.843 50.2284 680.525 50.1927 687.209 50.1691C703.8 50.0985 720.39 49.9251 736.98 49.7266C749.897 49.5731 762.812 49.4491 775.73 49.4144C782.369 49.3933 789.002 49.3114 795.639 49.1828C799.772 49.116 803.904 49.1037 808.037 49.106C809.945 49.0961 811.853 49.064 813.761 49.0074C828.889 48.5768 828.889 48.5768 834.043 53.3565C836.923 56.5039 839.212 59.9068 841.5 63.4999C842.49 64.7705 843.494 66.0308 844.523 67.2694C845.299 68.2736 846.075 69.2778 846.875 70.3124C850.853 75.4284 854.901 80.4803 859 85.4999C863.508 91.0231 867.948 96.5917 872.336 102.211C875.838 106.684 879.408 111.099 883 115.5C887.508 121.023 891.948 126.592 896.336 132.211C900.373 137.368 904.505 142.444 908.647 147.517C912.762 152.568 916.809 157.668 920.811 162.808C922.811 165.374 924.717 167.7 927.114 169.913C930.953 174.564 930.179 180.241 930.115 185.982C930.121 187.259 930.127 188.537 930.133 189.852C930.148 193.405 930.132 196.957 930.111 200.51C930.094 204.363 930.106 208.216 930.114 212.069C930.125 218.831 930.116 225.594 930.096 232.356C930.066 242.543 930.064 252.729 930.068 262.915C930.075 279.985 930.058 297.054 930.028 314.124C929.987 337.204 929.977 360.284 929.973 383.364C929.947 438.868 929.877 494.371 929.813 549.875C929.709 673.831 929.606 797.787 929.5 925.5C632.5 925.5 335.5 925.5 29.5 925.5C29.2731 801.688 29.0463 677.876 28.8125 550.312C28.7124 511.171 28.6122 472.03 28.509 431.702C28.4594 384.027 28.4594 384.027 28.4501 361.731C28.4392 345.078 28.3917 328.426 28.3266 311.773C28.2611 294.795 28.2368 277.817 28.2521 260.839C28.26 250.742 28.2381 240.646 28.1711 230.55C28.1299 223.882 28.1286 217.215 28.1598 210.547C28.1765 206.749 28.1758 202.954 28.1263 199.156C27.806 173.09 27.806 173.09 34.8937 165.353C36.6961 163.621 38.5534 162.079 40.5 160.5C42.1935 158.576 42.1935 158.576 43.5234 156.73C48.2706 150.587 53.0896 144.513 58 138.5C62.0499 133.538 66.0581 128.548 70 123.5C74.482 117.76 79.0596 112.103 83.6641 106.461C87.1553 102.175 90.5982 97.8566 94 93.4999C98.4762 87.7672 103.047 82.1172 107.646 76.4828C111.762 71.4322 115.809 66.3322 119.811 61.1913C121.034 59.6225 122.267 58.0611 123.5 56.4999C124.22 55.4605 124.94 54.4212 125.683 53.3503C127.877 50.7468 128.396 50.5217 131.96 49.7739C133.312 49.7545 134.665 49.768 136.017 49.8077C137.14 49.8045 137.14 49.8045 138.285 49.8012C140.79 49.801 143.292 49.8435 145.796 49.8856C147.594 49.8938 149.391 49.8993 151.188 49.9021C155.06 49.9134 158.93 49.9429 162.801 49.986C168.934 50.0525 175.067 50.0691 181.201 50.0771C197.546 50.1061 213.89 50.1982 230.235 50.3262C240.965 50.4101 251.696 50.4649 262.427 50.4658C268.511 50.4686 274.592 50.5166 280.676 50.5996C284.483 50.6409 288.29 50.6398 292.098 50.6276C293.847 50.6303 295.597 50.6498 297.346 50.6886C309.823 50.952 317.624 48.2807 327.661 40.8418C330.814 38.5411 334.099 36.4397 337.367 34.3085C338.687 33.4273 340.006 32.5445 341.323 31.6583C344.099 29.7931 346.878 27.9328 349.661 26.0778C355.912 21.9104 362.158 17.7373 368.376 13.5206C370.767 11.9024 373.166 10.296 375.567 8.69231C377.216 7.58524 378.854 6.46251 380.492 5.3395C381.479 4.68215 382.467 4.02481 383.484 3.34755C384.764 2.48142 384.764 2.48142 386.069 1.5978C389.093 0.232023 390.389 0.449118 393.5 1.4999ZM54.5 200.5C54.5 431.5 54.5 662.5 54.5 900.5C335 900.5 615.5 900.5 904.5 900.5C904.5 669.5 904.5 438.5 904.5 200.5C624 200.5 343.5 200.5 54.5 200.5Z"/>
</mask>
<path d="M393.5 1.4999C395.542 2.54042 395.542 2.54042 397.547 3.83583C398.3 4.31698 399.053 4.79812 399.829 5.29384C400.628 5.81559 401.427 6.33734 402.25 6.8749C403.094 7.41727 403.938 7.95964 404.808 8.51845C407.377 10.1714 409.939 11.8346 412.5 13.4999C413.882 14.3936 415.265 15.2869 416.648 16.1796C419.36 17.9313 422.069 19.6874 424.777 21.4452C431.645 25.896 438.542 30.3026 445.445 34.6998C450.014 37.6132 454.576 40.53 459.07 43.5585C460.042 44.207 460.042 44.207 461.032 44.8685C462.67 45.9668 464.298 47.0784 465.926 48.1913C468.308 49.7129 468.308 49.7129 470.397 49.2282C472.707 48.4281 474.619 47.4093 476.719 46.1561C477.971 45.4133 477.971 45.4133 479.248 44.6554C480.156 44.1091 481.064 43.5628 482 42.9999C482.965 42.4246 483.93 41.8492 484.924 41.2565C492.056 36.9933 499.161 32.683 506.262 28.368C508.007 27.3083 509.752 26.2499 511.498 25.1918C517.241 21.7089 522.974 18.212 528.683 14.6741C531.429 12.9755 534.183 11.2888 536.938 9.60399C538.263 8.78968 539.584 7.97009 540.903 7.14507C542.738 5.99714 544.584 4.86788 546.434 3.74208C548.012 2.76538 548.012 2.76538 549.623 1.76894C552.898 0.324475 554.17 0.327776 557.5 1.4999C559.735 2.81108 561.819 4.14692 563.938 5.6249C564.577 6.06084 565.216 6.49679 565.874 6.94594C567.302 7.92094 568.727 8.89958 570.15 9.88124C572.662 11.6117 575.184 13.3284 577.707 15.0429C585.018 20.0123 592.315 25.0006 599.605 29.9999C600.829 30.8385 600.829 30.8385 602.077 31.694C603.567 32.7153 605.056 33.7375 606.544 34.7609C607.953 35.7276 609.372 36.6814 610.799 37.6224C613.5 39.4999 613.5 39.4999 616.549 41.9731C627.005 50.1625 635.607 50.8618 648.571 50.5206C650.546 50.5064 652.52 50.4967 654.495 50.4914C658.717 50.4709 662.938 50.42 667.159 50.345C673.843 50.2284 680.525 50.1927 687.209 50.1691C703.8 50.0985 720.39 49.9251 736.98 49.7266C749.897 49.5731 762.812 49.4491 775.73 49.4144C782.369 49.3933 789.002 49.3114 795.639 49.1828C799.772 49.116 803.904 49.1037 808.037 49.106C809.945 49.0961 811.853 49.064 813.761 49.0074C828.889 48.5768 828.889 48.5768 834.043 53.3565C836.923 56.5039 839.212 59.9068 841.5 63.4999C842.49 64.7705 843.494 66.0308 844.523 67.2694C845.299 68.2736 846.075 69.2778 846.875 70.3124C850.853 75.4284 854.901 80.4803 859 85.4999C863.508 91.0231 867.948 96.5917 872.336 102.211C875.838 106.684 879.408 111.099 883 115.5C887.508 121.023 891.948 126.592 896.336 132.211C900.373 137.368 904.505 142.444 908.647 147.517C912.762 152.568 916.809 157.668 920.811 162.808C922.811 165.374 924.717 167.7 927.114 169.913C930.953 174.564 930.179 180.241 930.115 185.982C930.121 187.259 930.127 188.537 930.133 189.852C930.148 193.405 930.132 196.957 930.111 200.51C930.094 204.363 930.106 208.216 930.114 212.069C930.125 218.831 930.116 225.594 930.096 232.356C930.066 242.543 930.064 252.729 930.068 262.915C930.075 279.985 930.058 297.054 930.028 314.124C929.987 337.204 929.977 360.284 929.973 383.364C929.947 438.868 929.877 494.371 929.813 549.875C929.709 673.831 929.606 797.787 929.5 925.5C632.5 925.5 335.5 925.5 29.5 925.5C29.2731 801.688 29.0463 677.876 28.8125 550.312C28.7124 511.171 28.6122 472.03 28.509 431.702C28.4594 384.027 28.4594 384.027 28.4501 361.731C28.4392 345.078 28.3917 328.426 28.3266 311.773C28.2611 294.795 28.2368 277.817 28.2521 260.839C28.26 250.742 28.2381 240.646 28.1711 230.55C28.1299 223.882 28.1286 217.215 28.1598 210.547C28.1765 206.749 28.1758 202.954 28.1263 199.156C27.806 173.09 27.806 173.09 34.8937 165.353C36.6961 163.621 38.5534 162.079 40.5 160.5C42.1935 158.576 42.1935 158.576 43.5234 156.73C48.2706 150.587 53.0896 144.513 58 138.5C62.0499 133.538 66.0581 128.548 70 123.5C74.482 117.76 79.0596 112.103 83.6641 106.461C87.1553 102.175 90.5982 97.8566 94 93.4999C98.4762 87.7672 103.047 82.1172 107.646 76.4828C111.762 71.4322 115.809 66.3322 119.811 61.1913C121.034 59.6225 122.267 58.0611 123.5 56.4999C124.22 55.4605 124.94 54.4212 125.683 53.3503C127.877 50.7468 128.396 50.5217 131.96 49.7739C133.312 49.7545 134.665 49.768 136.017 49.8077C137.14 49.8045 137.14 49.8045 138.285 49.8012C140.79 49.801 143.292 49.8435 145.796 49.8856C147.594 49.8938 149.391 49.8993 151.188 49.9021C155.06 49.9134 158.93 49.9429 162.801 49.986C168.934 50.0525 175.067 50.0691 181.201 50.0771C197.546 50.1061 213.89 50.1982 230.235 50.3262C240.965 50.4101 251.696 50.4649 262.427 50.4658C268.511 50.4686 274.592 50.5166 280.676 50.5996C284.483 50.6409 288.29 50.6398 292.098 50.6276C293.847 50.6303 295.597 50.6498 297.346 50.6886C309.823 50.952 317.624 48.2807 327.661 40.8418C330.814 38.5411 334.099 36.4397 337.367 34.3085C338.687 33.4273 340.006 32.5445 341.323 31.6583C344.099 29.7931 346.878 27.9328 349.661 26.0778C355.912 21.9104 362.158 17.7373 368.376 13.5206C370.767 11.9024 373.166 10.296 375.567 8.69231C377.216 7.58524 378.854 6.46251 380.492 5.3395C381.479 4.68215 382.467 4.02481 383.484 3.34755C384.764 2.48142 384.764 2.48142 386.069 1.5978C389.093 0.232023 390.389 0.449118 393.5 1.4999ZM54.5 200.5C54.5 431.5 54.5 662.5 54.5 900.5C335 900.5 615.5 900.5 904.5 900.5C904.5 669.5 904.5 438.5 904.5 200.5C624 200.5 343.5 200.5 54.5 200.5Z" fill="#A16A4A" stroke="#62412E" stroke-width="2" mask="url(#path-2-inside-1_1_13)"/>
<path d="M416.317 300.597C422.157 300.605 427.997 300.598 433.835 300.593C443.641 300.588 453.448 300.594 463.255 300.609C474.584 300.625 485.913 300.62 497.241 300.604C506.974 300.59 516.707 300.588 526.44 300.596C529.346 300.598 532.251 300.599 535.156 300.599L543.872 300.591C546.604 300.587 549.336 300.587 552.068 300.589L560.265 300.606C562.268 300.61 564.271 300.608 566.274 300.602C569.012 300.594 571.75 300.605 574.489 300.619H574.497C575.281 300.613 576.065 300.606 576.872 300.599C584.681 300.681 591.849 302.595 597.565 307.996C602.589 313.914 604.81 320.035 604.424 327.772C603.34 334.605 600.108 340.282 595.19 345.102C588.93 348.921 583.543 350.149 576.196 350.154H576.193C574.908 350.16 574.908 350.161 573.597 350.167C570.714 350.181 567.832 350.187 564.948 350.193H564.947C562.884 350.201 560.821 350.209 558.758 350.218C551.973 350.244 545.187 350.259 538.401 350.274C536.065 350.279 533.729 350.284 531.394 350.289C521.675 350.311 511.957 350.33 502.238 350.341C491.794 350.353 481.349 350.375 470.904 350.409L460.459 350.448C450.668 350.486 440.876 350.506 431.085 350.511C425.237 350.515 419.388 350.526 413.539 350.559C408.036 350.589 402.532 350.596 397.028 350.584H397.027C396.018 350.584 395.009 350.586 394 350.59L390.974 350.61C380.375 350.697 375.178 350.735 371.587 349.84C368.062 348.961 366.094 347.185 361.965 343.427C356.903 338.215 354.89 332.342 354.5 325.124C354.717 318.429 357.048 313.019 361.503 307.997C367.756 302.275 373.921 300.549 382.249 300.619H382.257L384.854 300.605C387.711 300.593 390.568 300.602 393.428 300.612H393.431L399.597 300.596C405.17 300.582 410.743 300.587 416.317 300.597Z" fill="#A16A4A" stroke="#62412E"/>
<path d="M0.5 248.5V169.754L128.692 0.5H825.798L952.5 169.754V248.5H0.5Z" fill="#A16A4A"/>
<path d="M0.5 169.754V248.5H952.5V169.754M0.5 169.754H952.5M0.5 169.754L128.692 0.5H825.798L952.5 169.754" stroke="#62412E"/>
</svg>
