<svg width="902" height="925" viewBox="0 0 902 925" fill="none" xmlns="http://www.w3.org/2000/svg">
<g clip-path="url(#clip0_1_2)">
<path d="M365 1.00002C367.042 2.04055 367.042 2.04055 369.047 3.33596C369.8 3.8171 370.553 4.29824 371.329 4.79396C372.128 5.31571 372.927 5.83746 373.75 6.37502C374.594 6.91739 375.438 7.45976 376.308 8.01857C378.877 9.67151 381.439 11.3347 384 13C385.382 13.8938 386.765 14.787 388.148 15.6797C390.86 17.4315 393.569 19.1876 396.277 20.9453C403.145 25.3962 410.042 29.8027 416.945 34.2C421.514 37.1133 426.076 40.0301 430.57 43.0586C431.542 43.7071 431.542 43.7071 432.532 44.3687C434.17 45.4669 435.798 46.5785 437.426 47.6914C439.808 49.213 439.808 49.213 441.897 48.7283C444.207 47.9282 446.119 46.9095 448.219 45.6563C449.471 44.9134 449.471 44.9134 450.748 44.1555C451.656 43.6092 452.564 43.0629 453.5 42.5C454.465 41.9247 455.43 41.3494 456.424 40.7566C463.556 36.4935 470.661 32.1831 477.762 27.8681C479.507 26.8084 481.252 25.75 482.998 24.6919C488.741 21.209 494.474 17.7121 500.183 14.1742C502.929 12.4757 505.683 10.7889 508.437 9.10411C509.763 8.2898 511.084 7.47021 512.403 6.64519C514.238 5.49726 516.084 4.36801 517.934 3.24221C519.512 2.2655 519.512 2.2655 521.123 1.26906C524.398 -0.175403 525.67 -0.172102 529 1.00002C531.235 2.3112 533.319 3.64704 535.438 5.12502C536.077 5.56096 536.716 5.99691 537.374 6.44606C538.802 7.42106 540.227 8.39971 541.65 9.38137C544.162 11.1118 546.684 12.8285 549.207 14.543C556.518 19.5124 563.815 24.5007 571.105 29.5C572.329 30.3386 572.329 30.3386 573.577 31.1941C575.067 32.2155 576.556 33.2376 578.044 34.261C579.453 35.2277 580.872 36.1816 582.299 37.1225C585 39 585 39 588.049 41.4732C598.505 49.6626 607.107 50.3619 620.071 50.0208C622.046 50.0065 624.02 49.9969 625.995 49.9915C630.217 49.971 634.438 49.9201 638.659 49.8452C645.343 49.7286 652.025 49.6928 658.709 49.6693C675.3 49.5986 691.89 49.4252 708.479 49.2267C721.397 49.0732 734.312 48.9492 747.23 48.9145C753.869 48.8934 760.502 48.8116 767.139 48.6829C771.272 48.6161 775.404 48.6038 779.537 48.6062C781.445 48.5963 783.353 48.5642 785.261 48.5076C800.389 48.0769 800.389 48.0769 805.543 52.8567C808.423 56.004 810.712 59.407 813 63C813.99 64.2707 814.994 65.5309 816.023 66.7695C816.799 67.7737 817.575 68.7779 818.375 69.8125C822.353 74.9286 826.401 79.9804 830.5 85C835.008 90.5233 839.448 96.0919 843.836 101.711C847.338 106.184 850.908 110.599 854.5 115C859.008 120.523 863.448 126.092 867.836 131.711C871.873 136.868 876.005 141.944 880.146 147.017C884.262 152.068 888.309 157.168 892.311 162.309C894.311 164.874 896.217 167.2 898.614 169.413C902.453 174.064 901.679 179.741 901.615 185.483C901.621 186.76 901.627 188.037 901.633 189.352C901.648 192.905 901.632 196.457 901.611 200.01C901.594 203.863 901.606 207.716 901.614 211.569C901.625 218.331 901.616 225.094 901.596 231.856C901.566 242.043 901.564 252.229 901.568 262.415C901.575 279.485 901.558 296.554 901.528 313.624C901.487 336.704 901.477 359.784 901.473 382.865C901.447 438.368 901.377 493.872 901.312 549.375C901.209 673.331 901.106 797.287 901 925C604 925 307 925 0.999978 925C0.773103 801.188 0.546228 677.376 0.312478 549.812C0.212334 510.671 0.11219 471.53 0.00901091 431.202C-0.0406717 383.527 -0.0406564 383.527 -0.049888 361.231C-0.0608431 344.578 -0.108335 327.926 -0.173423 311.273C-0.238887 294.295 -0.26323 277.317 -0.247917 260.339C-0.24002 250.242 -0.261947 240.146 -0.32891 230.05C-0.370135 223.382 -0.371402 216.715 -0.340202 210.047C-0.323571 206.249 -0.324267 202.454 -0.373741 198.656C-0.694029 172.59 -0.694022 172.59 6.39368 164.854C8.1961 163.121 10.0534 161.579 12 160C13.6935 158.077 13.6935 158.077 15.0234 156.23C19.7706 150.088 24.5896 144.013 29.5 138C33.5499 133.038 37.558 128.048 41.5 123C45.982 117.26 50.5595 111.603 55.164 105.961C58.6553 101.675 62.0982 97.3567 65.5 93C69.9762 87.2673 74.5473 81.6173 79.1465 75.9829C83.2617 70.9324 87.3088 65.8323 91.3105 60.6914C92.5339 59.1226 93.7668 57.5612 95 56C95.7202 54.9606 96.4404 53.9213 97.1825 52.8504C99.3768 50.2469 99.896 50.0218 103.46 49.274C104.812 49.2546 106.165 49.2681 107.517 49.3078C108.64 49.3046 108.64 49.3046 109.785 49.3013C112.29 49.3011 114.792 49.3436 117.296 49.3858C119.094 49.394 120.891 49.3994 122.688 49.4022C126.559 49.4135 130.43 49.443 134.301 49.4861C140.434 49.5527 146.567 49.5692 152.701 49.5772C169.046 49.6063 185.39 49.6984 201.735 49.8263C212.465 49.9102 223.196 49.965 233.927 49.9659C240.011 49.9687 246.092 50.0168 252.176 50.0997C255.983 50.141 259.79 50.14 263.597 50.1277C265.347 50.1304 267.096 50.1499 268.846 50.1887C281.323 50.4521 289.124 47.7808 299.161 40.3419C302.314 38.0412 305.599 35.9398 308.867 33.8086C310.187 32.9274 311.506 32.0446 312.823 31.1585C315.599 29.2932 318.378 27.4329 321.161 25.5779C327.412 21.4105 333.658 17.2374 339.876 13.0207C342.267 11.4025 344.666 9.79612 347.067 8.19243C348.716 7.08536 350.354 5.96264 351.992 4.83962C352.979 4.18228 353.967 3.52494 354.984 2.84767C356.264 1.98155 356.264 1.98155 357.569 1.09792C360.593 -0.267855 361.889 -0.0507596 365 1.00002Z" fill="#FEC39B"/>
<mask id="path-2-inside-1_1_2" fill="white">
<path d="M365 1.00002C367.042 2.04055 367.042 2.04055 369.047 3.33596C369.8 3.8171 370.553 4.29824 371.329 4.79396C372.128 5.31571 372.927 5.83746 373.75 6.37502C374.594 6.91739 375.438 7.45976 376.308 8.01857C378.877 9.67151 381.439 11.3347 384 13C385.382 13.8938 386.765 14.787 388.148 15.6797C390.86 17.4315 393.569 19.1876 396.277 20.9453C403.145 25.3962 410.042 29.8027 416.945 34.2C421.514 37.1133 426.076 40.0301 430.57 43.0586C431.542 43.7071 431.542 43.7071 432.532 44.3687C434.17 45.4669 435.798 46.5785 437.426 47.6914C439.808 49.213 439.808 49.213 441.897 48.7283C444.207 47.9282 446.119 46.9095 448.219 45.6563C449.471 44.9134 449.471 44.9134 450.748 44.1555C451.656 43.6092 452.564 43.0629 453.5 42.5C454.465 41.9247 455.43 41.3494 456.424 40.7566C463.556 36.4935 470.661 32.1831 477.762 27.8681C479.507 26.8084 481.252 25.75 482.998 24.6919C488.741 21.209 494.474 17.7121 500.183 14.1742C502.929 12.4757 505.683 10.7889 508.437 9.10411C509.763 8.2898 511.084 7.47021 512.403 6.64519C514.238 5.49726 516.084 4.36801 517.934 3.24221C519.512 2.2655 519.512 2.2655 521.123 1.26906C524.398 -0.175403 525.67 -0.172102 529 1.00002C531.235 2.3112 533.319 3.64704 535.438 5.12502C536.077 5.56096 536.716 5.99691 537.374 6.44606C538.802 7.42106 540.227 8.39971 541.65 9.38137C544.162 11.1118 546.684 12.8285 549.207 14.543C556.518 19.5124 563.815 24.5007 571.105 29.5C572.329 30.3386 572.329 30.3386 573.577 31.1941C575.067 32.2155 576.556 33.2376 578.044 34.261C579.453 35.2277 580.872 36.1816 582.299 37.1225C585 39 585 39 588.049 41.4732C598.505 49.6626 607.107 50.3619 620.071 50.0208C622.046 50.0065 624.02 49.9969 625.995 49.9915C630.217 49.971 634.438 49.9201 638.659 49.8452C645.343 49.7286 652.025 49.6928 658.709 49.6693C675.3 49.5986 691.89 49.4252 708.479 49.2267C721.397 49.0732 734.312 48.9492 747.23 48.9145C753.869 48.8934 760.502 48.8116 767.139 48.6829C771.272 48.6161 775.404 48.6038 779.537 48.6062C781.445 48.5963 783.353 48.5642 785.261 48.5076C800.389 48.0769 800.389 48.0769 805.543 52.8567C808.423 56.004 810.712 59.407 813 63C813.99 64.2707 814.994 65.5309 816.023 66.7695C816.799 67.7737 817.575 68.7779 818.375 69.8125C822.353 74.9286 826.401 79.9804 830.5 85C835.008 90.5233 839.448 96.0919 843.836 101.711C847.338 106.184 850.908 110.599 854.5 115C859.008 120.523 863.448 126.092 867.836 131.711C871.873 136.868 876.005 141.944 880.146 147.017C884.262 152.068 888.309 157.168 892.311 162.309C894.311 164.874 896.217 167.2 898.614 169.413C902.453 174.064 901.679 179.741 901.615 185.483C901.621 186.76 901.627 188.037 901.633 189.352C901.648 192.905 901.632 196.457 901.611 200.01C901.594 203.863 901.606 207.716 901.614 211.569C901.625 218.331 901.616 225.094 901.596 231.856C901.566 242.043 901.564 252.229 901.568 262.415C901.575 279.485 901.558 296.554 901.528 313.624C901.487 336.704 901.477 359.784 901.473 382.865C901.447 438.368 901.377 493.872 901.312 549.375C901.209 673.331 901.106 797.287 901 925C604 925 307 925 0.999978 925C0.773103 801.188 0.546228 677.376 0.312478 549.812C0.212334 510.671 0.11219 471.53 0.00901091 431.202C-0.0406717 383.527 -0.0406564 383.527 -0.049888 361.231C-0.0608431 344.578 -0.108335 327.926 -0.173423 311.273C-0.238887 294.295 -0.26323 277.317 -0.247917 260.339C-0.24002 250.242 -0.261947 240.146 -0.32891 230.05C-0.370135 223.382 -0.371402 216.715 -0.340202 210.047C-0.323571 206.249 -0.324267 202.454 -0.373741 198.656C-0.694029 172.59 -0.694022 172.59 6.39368 164.854C8.1961 163.121 10.0534 161.579 12 160C13.6935 158.077 13.6935 158.077 15.0234 156.23C19.7706 150.088 24.5896 144.013 29.5 138C33.5499 133.038 37.558 128.048 41.5 123C45.982 117.26 50.5595 111.603 55.164 105.961C58.6553 101.675 62.0982 97.3567 65.5 93C69.9762 87.2673 74.5473 81.6173 79.1465 75.9829C83.2617 70.9324 87.3088 65.8323 91.3105 60.6914C92.5339 59.1226 93.7668 57.5612 95 56C95.7202 54.9606 96.4404 53.9213 97.1825 52.8504C99.3768 50.2469 99.896 50.0218 103.46 49.274C104.812 49.2546 106.165 49.2681 107.517 49.3078C108.64 49.3046 108.64 49.3046 109.785 49.3013C112.29 49.3011 114.792 49.3436 117.296 49.3858C119.094 49.394 120.891 49.3994 122.688 49.4022C126.559 49.4135 130.43 49.443 134.301 49.4861C140.434 49.5527 146.567 49.5692 152.701 49.5772C169.046 49.6063 185.39 49.6984 201.735 49.8263C212.465 49.9102 223.196 49.965 233.927 49.9659C240.011 49.9687 246.092 50.0168 252.176 50.0997C255.983 50.141 259.79 50.14 263.597 50.1277C265.347 50.1304 267.096 50.1499 268.846 50.1887C281.323 50.4521 289.124 47.7808 299.161 40.3419C302.314 38.0412 305.599 35.9398 308.867 33.8086C310.187 32.9274 311.506 32.0446 312.823 31.1585C315.599 29.2932 318.378 27.4329 321.161 25.5779C327.412 21.4105 333.658 17.2374 339.876 13.0207C342.267 11.4025 344.666 9.79612 347.067 8.19243C348.716 7.08536 350.354 5.96264 351.992 4.83962C352.979 4.18228 353.967 3.52494 354.984 2.84767C356.264 1.98155 356.264 1.98155 357.569 1.09792C360.593 -0.267855 361.889 -0.0507596 365 1.00002ZM26 200C26 431 26 662 26 900C306.5 900 587 900 876 900C876 669 876 438 876 200C595.5 200 315 200 26 200Z"/>
</mask>
<path d="M365 1.00002C367.042 2.04055 367.042 2.04055 369.047 3.33596C369.8 3.8171 370.553 4.29824 371.329 4.79396C372.128 5.31571 372.927 5.83746 373.75 6.37502C374.594 6.91739 375.438 7.45976 376.308 8.01857C378.877 9.67151 381.439 11.3347 384 13C385.382 13.8938 386.765 14.787 388.148 15.6797C390.86 17.4315 393.569 19.1876 396.277 20.9453C403.145 25.3962 410.042 29.8027 416.945 34.2C421.514 37.1133 426.076 40.0301 430.57 43.0586C431.542 43.7071 431.542 43.7071 432.532 44.3687C434.17 45.4669 435.798 46.5785 437.426 47.6914C439.808 49.213 439.808 49.213 441.897 48.7283C444.207 47.9282 446.119 46.9095 448.219 45.6563C449.471 44.9134 449.471 44.9134 450.748 44.1555C451.656 43.6092 452.564 43.0629 453.5 42.5C454.465 41.9247 455.43 41.3494 456.424 40.7566C463.556 36.4935 470.661 32.1831 477.762 27.8681C479.507 26.8084 481.252 25.75 482.998 24.6919C488.741 21.209 494.474 17.7121 500.183 14.1742C502.929 12.4757 505.683 10.7889 508.437 9.10411C509.763 8.2898 511.084 7.47021 512.403 6.64519C514.238 5.49726 516.084 4.36801 517.934 3.24221C519.512 2.2655 519.512 2.2655 521.123 1.26906C524.398 -0.175403 525.67 -0.172102 529 1.00002C531.235 2.3112 533.319 3.64704 535.438 5.12502C536.077 5.56096 536.716 5.99691 537.374 6.44606C538.802 7.42106 540.227 8.39971 541.65 9.38137C544.162 11.1118 546.684 12.8285 549.207 14.543C556.518 19.5124 563.815 24.5007 571.105 29.5C572.329 30.3386 572.329 30.3386 573.577 31.1941C575.067 32.2155 576.556 33.2376 578.044 34.261C579.453 35.2277 580.872 36.1816 582.299 37.1225C585 39 585 39 588.049 41.4732C598.505 49.6626 607.107 50.3619 620.071 50.0208C622.046 50.0065 624.02 49.9969 625.995 49.9915C630.217 49.971 634.438 49.9201 638.659 49.8452C645.343 49.7286 652.025 49.6928 658.709 49.6693C675.3 49.5986 691.89 49.4252 708.479 49.2267C721.397 49.0732 734.312 48.9492 747.23 48.9145C753.869 48.8934 760.502 48.8116 767.139 48.6829C771.272 48.6161 775.404 48.6038 779.537 48.6062C781.445 48.5963 783.353 48.5642 785.261 48.5076C800.389 48.0769 800.389 48.0769 805.543 52.8567C808.423 56.004 810.712 59.407 813 63C813.99 64.2707 814.994 65.5309 816.023 66.7695C816.799 67.7737 817.575 68.7779 818.375 69.8125C822.353 74.9286 826.401 79.9804 830.5 85C835.008 90.5233 839.448 96.0919 843.836 101.711C847.338 106.184 850.908 110.599 854.5 115C859.008 120.523 863.448 126.092 867.836 131.711C871.873 136.868 876.005 141.944 880.146 147.017C884.262 152.068 888.309 157.168 892.311 162.309C894.311 164.874 896.217 167.2 898.614 169.413C902.453 174.064 901.679 179.741 901.615 185.483C901.621 186.76 901.627 188.037 901.633 189.352C901.648 192.905 901.632 196.457 901.611 200.01C901.594 203.863 901.606 207.716 901.614 211.569C901.625 218.331 901.616 225.094 901.596 231.856C901.566 242.043 901.564 252.229 901.568 262.415C901.575 279.485 901.558 296.554 901.528 313.624C901.487 336.704 901.477 359.784 901.473 382.865C901.447 438.368 901.377 493.872 901.312 549.375C901.209 673.331 901.106 797.287 901 925C604 925 307 925 0.999978 925C0.773103 801.188 0.546228 677.376 0.312478 549.812C0.212334 510.671 0.11219 471.53 0.00901091 431.202C-0.0406717 383.527 -0.0406564 383.527 -0.049888 361.231C-0.0608431 344.578 -0.108335 327.926 -0.173423 311.273C-0.238887 294.295 -0.26323 277.317 -0.247917 260.339C-0.24002 250.242 -0.261947 240.146 -0.32891 230.05C-0.370135 223.382 -0.371402 216.715 -0.340202 210.047C-0.323571 206.249 -0.324267 202.454 -0.373741 198.656C-0.694029 172.59 -0.694022 172.59 6.39368 164.854C8.1961 163.121 10.0534 161.579 12 160C13.6935 158.077 13.6935 158.077 15.0234 156.23C19.7706 150.088 24.5896 144.013 29.5 138C33.5499 133.038 37.558 128.048 41.5 123C45.982 117.26 50.5595 111.603 55.164 105.961C58.6553 101.675 62.0982 97.3567 65.5 93C69.9762 87.2673 74.5473 81.6173 79.1465 75.9829C83.2617 70.9324 87.3088 65.8323 91.3105 60.6914C92.5339 59.1226 93.7668 57.5612 95 56C95.7202 54.9606 96.4404 53.9213 97.1825 52.8504C99.3768 50.2469 99.896 50.0218 103.46 49.274C104.812 49.2546 106.165 49.2681 107.517 49.3078C108.64 49.3046 108.64 49.3046 109.785 49.3013C112.29 49.3011 114.792 49.3436 117.296 49.3858C119.094 49.394 120.891 49.3994 122.688 49.4022C126.559 49.4135 130.43 49.443 134.301 49.4861C140.434 49.5527 146.567 49.5692 152.701 49.5772C169.046 49.6063 185.39 49.6984 201.735 49.8263C212.465 49.9102 223.196 49.965 233.927 49.9659C240.011 49.9687 246.092 50.0168 252.176 50.0997C255.983 50.141 259.79 50.14 263.597 50.1277C265.347 50.1304 267.096 50.1499 268.846 50.1887C281.323 50.4521 289.124 47.7808 299.161 40.3419C302.314 38.0412 305.599 35.9398 308.867 33.8086C310.187 32.9274 311.506 32.0446 312.823 31.1585C315.599 29.2932 318.378 27.4329 321.161 25.5779C327.412 21.4105 333.658 17.2374 339.876 13.0207C342.267 11.4025 344.666 9.79612 347.067 8.19243C348.716 7.08536 350.354 5.96264 351.992 4.83962C352.979 4.18228 353.967 3.52494 354.984 2.84767C356.264 1.98155 356.264 1.98155 357.569 1.09792C360.593 -0.267855 361.889 -0.0507596 365 1.00002ZM26 200C26 431 26 662 26 900C306.5 900 587 900 876 900C876 669 876 438 876 200C595.5 200 315 200 26 200Z" fill="#A16A4A" stroke="#62412E" stroke-width="2" mask="url(#path-2-inside-1_1_2)"/>
<path d="M361.224 0.640686C362.221 0.647833 363.25 0.933213 364.809 1.46295C366.799 2.47735 366.796 2.47697 368.775 3.75592L368.777 3.7569C369.529 4.23718 370.281 4.71719 371.056 5.21198V5.21295C371.855 5.7346 372.653 6.25655 373.477 6.79401L373.479 6.79596C374.324 7.33825 375.167 7.8808 376.037 8.43951C378.605 10.0918 381.167 11.7538 383.728 13.419L383.729 13.42C385.111 14.3137 386.494 15.207 387.877 16.0997C390.588 17.8511 393.297 19.6067 396.005 21.3643L396.006 21.3653C402.875 25.817 409.773 30.2239 416.676 34.6212C421.246 37.5347 425.803 40.4492 430.291 43.4737L430.293 43.4747C431.264 44.1227 431.264 44.1226 432.254 44.7833V44.7842C433.889 45.881 435.516 46.9917 437.144 48.1046L437.15 48.1085L437.156 48.1124C437.747 48.4895 438.208 48.7841 438.591 48.9991C438.976 49.2151 439.312 49.3689 439.658 49.4493C440.354 49.6107 441.005 49.448 442.01 49.2149L442.036 49.209L442.061 49.2012C444.417 48.3851 446.362 47.3468 448.475 46.086L448.474 46.085C449.725 45.3424 449.726 45.3436 451.003 44.586L451.006 44.584C451.914 44.0378 452.821 43.4906 453.757 42.9278C454.721 42.3527 455.686 41.7781 456.68 41.1856H456.681C463.815 36.9216 470.919 32.6098 478.021 28.295L478.021 28.296C479.766 27.2364 481.512 26.1773 483.258 25.1192C487.565 22.5068 491.868 19.8862 496.159 17.2462L500.446 14.5997C503.191 12.9018 505.944 11.2151 508.698 9.53033H508.699C509.362 9.12279 510.025 8.71398 510.687 8.30377L512.668 7.0694C514.501 5.92311 516.345 4.79453 518.193 3.66901L518.196 3.66705C519.765 2.69666 519.775 2.69022 521.354 1.71295C522.96 1.00636 524.018 0.68351 525.056 0.653381C526.092 0.623344 527.158 0.883835 528.787 1.45514C530.995 2.75211 533.057 4.07362 535.151 5.53522L535.155 5.53815C535.794 5.97406 536.433 6.41032 537.092 6.85944L541.366 9.79303C543.88 11.5243 546.402 13.2417 548.926 14.9561C556.236 19.925 563.533 24.9132 570.822 29.9122H570.823C571.63 30.4654 572.437 31.0189 573.269 31.5889C574.843 32.6684 576.417 33.7487 577.991 34.8292H577.992C581.674 37.3517 585.369 39.854 589.1 42.3087C589.787 42.7614 590.475 43.2133 591.183 43.6797V43.6807C591.819 44.0986 592.457 44.515 593.095 44.9307L595.012 46.1749C597.264 47.6524 599.293 49.0791 601.175 50.9151L601.55 51.2881L601.556 51.294C604.651 54.3435 608.223 56.5373 611.787 58.8546V58.8555L616.67 62.0733C617.506 62.6247 618.343 63.1761 619.205 63.7442V63.7452C623.214 66.4063 627.184 69.1242 631.154 71.8497C631.943 72.3904 632.732 72.9312 633.544 73.4883C635.142 74.5851 636.741 75.683 638.339 76.7803C642.233 79.4537 646.132 82.1211 650.03 84.7881V84.7872C650.806 85.3182 651.582 85.8494 652.382 86.3965C659.425 91.2149 666.475 96.0219 673.526 100.827C680.201 105.377 686.869 109.935 693.534 114.498C699.591 118.644 705.654 122.78 711.719 126.913C718.556 131.573 725.39 136.238 732.218 140.912C735.384 143.079 738.551 145.247 741.718 147.413V147.412L744.39 149.241C747.186 151.154 749.983 153.065 752.78 154.976L755.549 156.866C760.053 159.937 764.571 162.989 769.118 165.999C769.959 166.556 770.8 167.113 771.667 167.687H771.668C773.258 168.736 774.849 169.782 776.443 170.825V170.826C778.143 171.947 779.823 173.1 781.5 174.263V174.5H98.2266C101.218 171.63 104.012 169.59 107.631 167.43L107.636 167.427C114.485 163.236 121.189 158.84 127.859 154.389L130.716 152.478C142.743 144.427 154.808 136.435 166.899 128.481C167.758 127.915 168.618 127.35 169.503 126.768C173.048 124.435 176.594 122.102 180.14 119.77C189.212 113.802 198.28 107.826 207.347 101.849C210.078 100.049 212.809 98.2491 215.54 96.4493C224.182 90.7538 232.823 85.0565 241.462 79.3555C245.508 76.6852 249.555 74.0154 253.603 71.3458C255.531 70.0737 257.458 68.8012 259.386 67.5284L267.416 62.2296C268.197 61.7132 268.978 61.1961 269.783 60.6641C274.019 57.8726 278.283 55.151 282.616 52.5186L282.624 52.5128L282.633 52.5079C284.836 51.0461 286.535 49.2098 288.319 47.3878C290.403 46.0112 292.487 44.7091 294.631 43.4297L294.636 43.4268C302.126 38.8502 309.438 34.0247 316.722 29.1465C318.658 27.8501 320.597 26.5557 322.536 25.2628C326.905 22.3491 331.272 19.4318 335.627 16.4962L339.978 13.5538C342.36 11.9417 344.75 10.3414 347.143 8.74323L347.144 8.74225C348.809 7.62387 350.464 6.49006 352.116 5.35748C353.119 4.68983 354.123 4.02193 355.156 3.33405L355.159 3.33209C355.595 3.03703 356.031 2.7417 356.471 2.4444C356.897 2.15569 357.327 1.86437 357.763 1.5694C359.243 0.897685 360.241 0.633669 361.224 0.640686Z" fill="#788B9C" stroke="#62412E"/>
<path d="M524.09 30.7289C524.568 30.6655 525.076 30.7792 526.319 31.0834C528.855 32.4941 531.258 33.9672 533.656 35.601H533.657C534.706 36.312 535.755 37.0227 536.835 37.7552V37.7562L538.662 39.0062L545.727 43.8197C555.34 50.361 564.937 56.928 574.532 63.4974C580.589 67.6435 586.653 71.78 592.719 75.9135C600.329 81.1002 607.935 86.2953 615.534 91.4984C621.591 95.644 627.654 99.7804 633.719 103.913C640.556 108.573 647.39 113.238 654.218 117.912C664.708 125.094 675.214 132.254 685.719 139.413C714.438 158.985 714.438 158.985 724.733 166.051C725.989 166.913 727.245 167.773 728.502 168.633C729.971 169.639 731.437 170.65 732.903 171.661H732.904C733.653 172.177 734.402 172.693 735.174 173.224H735.175C735.613 173.562 736.052 173.9 736.5 174.245V174.5H286.239C288.831 172.086 291.472 170.378 294.63 168.545L294.633 168.544C295.585 167.984 295.585 167.983 296.557 167.411C297.925 166.606 299.294 165.803 300.665 165.001C304.327 162.859 307.98 160.701 311.632 158.543L311.633 158.544C312.37 158.109 313.108 157.674 313.868 157.225V157.224C320.385 153.369 326.834 149.416 333.264 145.425C342.821 139.503 352.451 133.717 362.13 127.993C372.354 121.945 382.551 115.857 392.697 109.677C393.272 109.327 393.848 108.976 394.44 108.616C395.012 108.267 395.585 107.919 396.174 107.56C404.707 102.364 413.267 97.2149 421.84 92.0834H421.841C428.939 87.8308 436.013 83.5419 443.079 79.2386C451.591 74.0551 460.133 68.9239 468.696 63.8265L477.267 58.7396C487.154 52.886 496.997 46.9625 506.817 41.0004L516.63 35.0267C517.498 34.4989 518.366 33.971 519.26 33.4271L519.267 33.4232L519.272 33.4193C520.153 32.8468 521.033 32.2736 521.939 31.684C523.121 31.0442 523.603 30.7935 524.09 30.7289Z" fill="#FEFEFE" stroke="#62412E"/>
<path d="M363.584 30.6138C365.953 31.9733 368.299 33.3246 370.598 34.8008C371.909 35.639 371.909 35.639 373.247 36.4942C374.641 37.3942 374.641 37.3942 376.062 38.3125C377.028 38.9319 377.994 39.5513 378.989 40.1895C381.996 42.1209 384.999 44.0593 388 46C388.937 46.6051 389.873 47.2101 390.838 47.8335C399.598 53.498 408.331 59.1975 417 65C414.307 68.0884 410.945 69.9592 407.445 71.9922C406.472 72.5651 406.472 72.5651 405.48 73.1496C404.088 73.9687 402.695 74.7859 401.302 75.6013C397.625 77.7529 393.957 79.9195 390.289 82.086C389.2 82.7289 389.2 82.7289 388.088 83.3848C382.512 86.6822 376.99 90.0595 371.5 93.5C362.891 98.8843 354.177 104.08 345.438 109.25C335.11 115.359 324.81 121.509 314.562 127.75C313.988 128.1 313.413 128.45 312.821 128.81C312.249 129.159 311.677 129.507 311.088 129.866C302.567 135.055 294.02 140.196 285.46 145.319C279.842 148.686 274.233 152.067 268.637 155.469C268.015 155.847 267.393 156.225 266.752 156.614C263.746 158.442 260.742 160.272 257.738 162.104C256.643 162.771 255.547 163.438 254.418 164.125C253.467 164.705 252.516 165.285 251.536 165.883C250.728 166.347 250.728 166.347 249.903 166.82C247.883 168.028 247.883 168.028 245.692 169.776C235.794 176.738 225.944 175.9 214.266 175.684C212.175 175.671 210.085 175.661 207.995 175.654C202.529 175.627 197.066 175.558 191.601 175.481C186.01 175.409 180.419 175.377 174.828 175.342C163.885 175.267 152.943 175.148 142 175C145.405 172.252 148.836 169.694 152.48 167.27C153.547 166.559 154.614 165.848 155.713 165.115C156.871 164.348 158.029 163.58 159.188 162.813C160.408 162.001 161.629 161.19 162.849 160.379C171.632 154.546 180.449 148.765 189.281 143.004C199.33 136.447 209.354 129.852 219.375 123.25C220.242 122.679 221.109 122.108 222.003 121.519C227.42 117.95 232.837 114.38 238.254 110.81C240.982 109.012 243.709 107.215 246.437 105.417C261.194 95.6919 275.952 85.9664 290.707 76.2373C291.652 75.614 292.597 74.9908 293.571 74.3486C295.476 73.0924 297.381 71.836 299.286 70.5795C303.941 67.5097 308.597 64.4424 313.257 61.3811C320.983 56.3038 328.702 51.2202 336.353 46.0314C339.346 44.0029 342.348 41.9869 345.35 39.9719C346.727 39.0421 348.1 38.1057 349.468 37.1624C351.321 35.8847 353.187 34.6298 355.059 33.3789C356.093 32.6732 357.127 31.9676 358.193 31.2405C361 30 361 30 363.584 30.6138Z" fill="#E0EAF1"/>
<path d="M776.297 74.4273C781.808 74.3025 784.476 74.2451 786.321 74.6099C788.095 74.9606 789.095 75.6973 791.257 77.3228C793.255 79.5449 794.933 81.7764 796.583 84.2759L796.595 84.2935L796.608 84.3101C797.506 85.4423 798.413 86.5692 799.335 87.6841V87.6851C800.156 88.7436 800.975 89.8043 801.791 90.8668L801.793 90.8687C805.835 96.0728 809.944 101.214 814.112 106.316C818.618 111.836 823.056 117.403 827.441 123.019H827.442C830.947 127.496 834.52 131.914 838.112 136.316C842.61 141.827 847.043 147.381 851.417 152.99L851.418 152.991C855.712 158.482 860.121 163.877 864.551 169.252V169.253C866.593 171.744 867.587 172.958 868.077 173.69C868.318 174.049 868.411 174.256 868.454 174.414C868.463 174.447 868.469 174.479 868.475 174.512C858.994 174.751 849.515 174.94 840.033 175.069L835.896 175.122C830.769 175.184 825.643 175.269 820.515 175.406C815.558 175.538 810.604 175.607 805.645 175.638H805.642C804.23 175.655 802.819 175.683 801.408 175.724L799.998 175.769C792.857 176.008 787.193 175.28 781.926 173.4C776.655 171.519 771.751 168.474 766.14 164.037L766.138 164.035L765.191 163.309C762.973 161.637 760.683 160.112 758.373 158.586L753.345 155.15L750.56 153.248C747.8 151.362 745.041 149.475 742.282 147.587C741.466 147.029 740.65 146.47 739.81 145.895C736.695 143.764 733.58 141.633 730.466 139.502C724.409 135.356 718.346 131.22 712.281 127.086C704.671 121.9 697.065 116.705 689.466 111.502C684.343 107.995 679.216 104.495 674.086 100.999C672.228 99.7321 670.37 98.4644 668.513 97.1968C663.95 94.0832 659.382 90.977 654.803 87.8863C653.936 87.2987 653.068 86.7114 652.175 86.106C650.541 84.9992 648.905 83.895 647.267 82.7955C646.537 82.2998 645.807 81.8042 645.055 81.2935L645.053 81.2925L643.144 80.0045C641.345 78.6326 639.782 77.1004 638.186 75.4869C657.471 75.2827 676.757 75.1291 696.043 75.0338C705.182 74.9874 714.321 74.9239 723.461 74.8209C731.426 74.7311 739.39 74.6729 747.355 74.6529C751.574 74.6412 755.792 74.614 760.012 74.5484C763.981 74.4872 767.95 74.4685 771.921 74.482H771.923C772.652 74.4808 773.381 74.4755 774.11 74.4664L776.297 74.4273Z" fill="#D5966D" stroke="#62412E"/>
<path d="M387.817 300.097C393.657 300.105 399.497 300.098 405.335 300.093C415.141 300.088 424.948 300.094 434.755 300.109C446.084 300.125 457.413 300.12 468.741 300.104C478.474 300.09 488.207 300.088 497.94 300.096C500.846 300.098 503.751 300.099 506.656 300.099L515.372 300.091C518.104 300.087 520.836 300.087 523.568 300.089L531.765 300.106C533.768 300.11 535.771 300.108 537.774 300.102C540.512 300.094 543.25 300.105 545.989 300.119H545.997C546.781 300.113 547.565 300.106 548.372 300.099C556.181 300.181 563.349 302.095 569.065 307.496C574.089 313.414 576.31 319.535 575.924 327.272C574.84 334.105 571.608 339.782 566.69 344.602C560.43 348.421 555.043 349.649 547.696 349.654H547.693C546.408 349.66 546.408 349.661 545.097 349.667C542.214 349.681 539.332 349.687 536.448 349.693H536.447C534.384 349.701 532.321 349.709 530.258 349.718C523.473 349.744 516.687 349.759 509.901 349.774C507.565 349.779 505.229 349.784 502.894 349.789C493.175 349.811 483.457 349.83 473.738 349.841C463.294 349.853 452.849 349.875 442.404 349.909L431.959 349.948C422.168 349.986 412.376 350.006 402.585 350.011C396.737 350.015 390.888 350.026 385.039 350.059C379.536 350.089 374.032 350.096 368.528 350.084H368.527C367.518 350.084 366.509 350.086 365.5 350.09L362.474 350.11C351.875 350.197 346.678 350.235 343.087 349.34C339.562 348.461 337.594 346.685 333.465 342.927C328.403 337.715 326.39 331.842 326 324.624C326.217 317.929 328.548 312.519 333.003 307.497C339.256 301.775 345.421 300.049 353.749 300.119H353.757L356.354 300.105C359.211 300.093 362.068 300.102 364.928 300.112H364.931L371.097 300.096C376.67 300.082 382.243 300.087 387.817 300.097Z" fill="#A16A4A" stroke="#62412E"/>
<path d="M125.525 75.2726H125.528C127.489 75.2722 127.489 75.2721 129.489 75.2717C133.079 75.2711 136.669 75.2831 140.26 75.2971C144.011 75.3095 147.762 75.3113 151.512 75.3137C158.616 75.3199 165.72 75.3356 172.824 75.3557C180.911 75.378 188.999 75.3896 197.086 75.3996C213.324 75.42 229.561 75.4542 245.799 75.4973C243.567 77.7115 241.415 79.5777 238.694 81.2541L238.692 81.2551C237.885 81.759 237.077 82.2632 236.245 82.7824C235.356 83.3325 234.466 83.8827 233.55 84.4494L233.547 84.4514C224.059 90.4053 214.712 96.5411 205.409 102.772C192.881 111.155 180.319 119.485 167.726 127.77C166.878 128.327 166.03 128.885 165.157 129.459C160.812 132.318 156.466 135.177 152.12 138.034C143.722 143.557 135.326 149.085 126.932 154.612C124.292 156.351 121.651 158.089 119.011 159.827H119.01C117.384 160.898 115.757 161.969 114.131 163.039C113.411 163.513 112.691 163.988 111.949 164.476C111.261 164.929 110.573 165.381 109.864 165.848C109.178 166.288 108.493 166.729 107.786 167.183L107.782 167.186C105.671 168.571 105.651 168.585 103.683 170.27C96.9998 175.534 90.5736 175.283 82.1328 175.086H82.125C80.7025 175.075 79.2799 175.066 77.8574 175.06H77.8584C76.0027 175.048 74.1468 175.029 72.291 175.003L66.7227 174.912L63.8691 174.871C61.0168 174.836 58.1647 174.816 55.3145 174.793C48.2041 174.732 41.0945 174.635 33.9844 174.516C34.7257 173.522 35.4678 172.529 36.21 171.536H36.2109C36.7325 170.838 37.2536 170.139 37.791 169.419L37.79 169.418C40.2999 166.113 42.9324 162.909 45.5742 159.693V159.692C49.7316 154.604 53.8507 149.489 57.8945 144.308C62.3729 138.572 66.948 132.919 71.5518 127.278V127.277C75.0452 122.988 78.4907 118.667 81.8945 114.308C85.2474 110.014 88.6531 105.765 92.0859 101.534L95.5273 97.3078C98.6876 93.4303 101.805 89.5215 104.892 85.5881L107.969 81.6467C110.437 78.4783 111.62 76.9652 112.54 76.1848C112.978 75.8133 113.339 75.6249 113.744 75.506C114.166 75.3824 114.648 75.3294 115.363 75.2541C116.817 75.2568 116.826 75.2571 118.327 75.2599H118.329C120.023 75.2558 120.024 75.2554 121.751 75.2512C122.996 75.2583 124.242 75.2652 125.525 75.2726Z" fill="#D5966D" stroke="#62412E"/>
</g>
<defs>
<clipPath id="clip0_1_2">
<rect width="902" height="925" fill="white"/>
</clipPath>
</defs>
</svg>
